<svg id="svg" version="1.1" xmlns="http://www.w3.org/2000/svg" xmlns:xlink="http://www.w3.org/1999/xlink" width="400" height="410.2564102564103" viewBox="0, 0, 400,410.2564102564103"><g id="svgg"><path id="path0" d="M149.213 5.206 C 15.617 38.946,-48.887 214.055,38.024 307.050 C 52.123 322.135,53.663 319.001,42.741 297.448 C -13.788 185.892,46.665 58.431,164.622 40.469 C 316.886 17.283,413.057 199.711,306.068 308.779 C 247.919 368.059,137.134 372.464,144.928 315.187 C 146.973 300.161,149.942 293.502,180.718 234.934 C 226.275 148.238,164.054 145.841,112.681 232.314 C 52.764 333.170,88.857 410.256,195.997 410.256 C 369.461 410.256,462.799 210.221,353.129 73.504 C 307.835 17.039,219.503 -12.546,149.213 5.206 M204.359 104.336 C 173.884 121.327,187.579 165.831,222.975 164.832 C 237.309 164.428,252.991 147.971,252.991 133.333 C 252.991 110.896,223.806 93.495,204.359 104.336 " stroke="none" fill="#2970ae" fill-rule="evenodd"></path></g></svg>